PathFileType	4	(X/Y/Z)	C:\Users\u0145647\OneDrive - KU Leuven\KU Leuven\c3d2osim\CP4\T0\Data\Processed\ViconC3D_CP4_2\CP4_T0_cmj_T1_gapFilled.trc
DataRate	CameraRate	NumFrames	NumMarkers	Units	OrigDataRate	OrigDataStartFrame	OrigNumFrames
100.000000	100.000000	4	47	mm	100.000000	287	459
Frame#	Time	C7			T10			CLAV			STRN			LSHO			RSHO			RBAK			LASI			RASI			LPSI			RPSI			LLAT			RLAT			LF1			LF2			LF3			LTHI			LKNE			LMEK			RF1			RF2			RF3			RTHI			RKNE			RMEK			LT1			LT2			LT3			LTIB			LANK			LMM			RT1			RT2			RT3			RTIB			RANK			RMM			LHEE			LSTL			LLCA			LTOE			LCM5			RHEE			RSTL			RLCA			RTOE			RCM5
		X1	Y1	Z1	X2	Y2	Z2	X3	Y3	Z3	X4	Y4	Z4	X5	Y5	Z5	X6	Y6	Z6	X7	Y7	Z7	X8	Y8	Z8	X9	Y9	Z9	X10	Y10	Z10	X11	Y11	Z11	X12	Y12	Z12	X13	Y13	Z13	X14	Y14	Z14	X15	Y15	Z15	X16	Y16	Z16	X17	Y17	Z17	X18	Y18	Z18	X19	Y19	Z19	X20	Y20	Z20	X21	Y21	Z21	X22	Y22	Z22	X23	Y23	Z23	X24	Y24	Z24	X25	Y25	Z25	X26	Y26	Z26	X27	Y27	Z27	X28	Y28	Z28	X29	Y29	Z29	X30	Y30	Z30	X31	Y31	Z31	X32	Y32	Z32	X33	Y33	Z33	X34	Y34	Z34	X35	Y35	Z35	X36	Y36	Z36	X37	Y37	Z37	X38	Y38	Z38	X39	Y39	Z39	X40	Y40	Z40	X41	Y41	Z41	X42	Y42	Z42	X43	Y43	Z43	X44	Y44	Z44	X45	Y45	Z45	X46	Y46	Z46	X47	Y47	Z47

287	2.86	-177.13	1431.8	-291.71	-150.76	1179	-326.6	-175.23	1351.2	-174.09	-170.55	1198.1	-150.7	34.374	1400.3	-220.09	-366.96	1382.3	-253.41	-292.5	1345.2	-336.86	-88.275	908.97	-168.33	-282.88	914.39	-222.16	-107.19	963.72	-345.79	-177.37	970.31	-365.36	-24.775	977.94	-210.64	-313.32	990.6	-280.99	28.487	669.06	-207.45	23.178	713.31	-221.61	34.463	665.56	-242.05	87.882	599.02	-229.78	40.52	462.93	-218.51	NaN	NaN	NaN	-338.46	647.15	-314.34	-342.45	679.32	-292.23	-324	681.33	-351.85	-380.25	586.87	-316.8	-323.55	458.81	-289.37	NaN	NaN	NaN	88.863	317.62	-320.48	73.259	339.58	-265.47	77.661	360.64	-313.36	129.9	242.49	-286.17	108.64	90.679	-401.51	24.778	80.669	-371.72	-349.02	318.67	-346.71	-336.43	355.25	-312.88	-340.38	368.29	-362.54	-398.29	251.15	-352.92	-349.6	76.171	-400.4	-269.48	77.14	-363.32	58.003	69.696	-444.89	34.081	51.183	-379.83	109.78	61.949	-400.83	101.3	45.287	-272.61	145.98	36.152	-294.84	-296.38	67.442	-437.36	-277.7	41.058	-369.59	-352.52	50.399	-395.31	-365.31	44.49	-271.33	-409.21	32.313	-312.69
288	2.87	-177.4	1433.7	-292.15	-151.16	1180.7	-327.21	-175.63	1352.9	-174.75	-170.74	1200	-151.52	34.123	1402.2	-220.48	-367.05	1384.2	-254.61	-292.29	1347.3	-337.63	-88.544	911.44	-167.84	-283.11	916.12	-221.46	-107.24	964.59	-345.57	-177.41	971.03	-365.05	-25.312	980.82	-209.73	-313.42	993.67	-281.05	27.86	671.02	-206.05	22.83	715.44	-220.13	33.868	667.44	-240.37	87.552	601.43	-228.09	39.902	464.54	-217.48	NaN	NaN	NaN	-339.25	648.03	-313.03	-342.87	680.08	-290.92	-325.14	682.1	-350.73	-381.29	587.57	-314.64	-324.02	459.28	-290.21	NaN	NaN	NaN	88.9	319.07	-319.32	72.936	341.17	-264.32	77.959	362.46	-311.49	130.18	244.23	-285.25	109.54	92.748	-400.61	25.363	82.044	-371.14	-349.48	318.8	-347.48	-336.71	355.33	-313.6	-340.8	368.63	-363.18	-398.73	251.35	-353.81	-349.7	76.482	-400.53	-269.83	77.638	-363.31	58.542	71.908	-444.1	34.802	53.009	-379.29	110.39	63.758	-400.03	101.28	45.555	-272.19	145.87	36.305	-294.15	-296.66	67.88	-437.4	-277.98	41.509	-369.59	-352.76	50.731	-395.32	-365.44	44.448	-271.31	-409.36	32.205	-312.66
289	2.88	-177.66	1436	-292.49	-151.43	1182.6	-327.8	-175.97	1355	-175.39	-171.09	1202.2	-152.39	33.71	1404.7	-220.5	-367.05	1386.6	-255.23	-292.32	1350.3	-338.18	-88.837	914.32	-167.05	-283.39	917.86	-220.77	-107.74	965.93	-345.21	-177.93	972.05	-364.67	-25.811	984.74	-209.7	-313.45	996.51	-280.85	27.625	673.39	-204.26	22.485	717.72	-218.19	33.836	670	-238.12	87.527	604.05	-225.16	40.006	466.58	-216.81	NaN	NaN	NaN	-339.58	648.72	-312.96	-343.1	680.64	-290.63	-325.63	683.05	-350.44	-381.44	588.17	-315.44	-324.35	460.02	-291.25	NaN	NaN	NaN	89.227	321.28	-318.55	73.045	343.08	-263.54	78.41	364.66	-310.91	130.6	246.45	-284.58	110.23	94.763	-399.72	26.042	83.813	-370.41	-349.85	319.76	-348.41	-337.47	356.47	-314.51	-340.9	369.47	-364.11	-399.01	252.2	-354.86	-350.03	77.154	-400.43	-270.1	78.282	-363.16	59.392	74.112	-443.32	35.587	54.876	-378.64	111.02	65.608	-399.03	101.27	45.786	-271.68	145.85	36.496	-293.46	-296.75	68.545	-437.33	-278.18	42.157	-369.52	-352.85	51.27	-395.25	-365.53	44.483	-271.23	-409.36	32.209	-312.57
290	2.89	-178	1438.8	-292.77	-151.7	1185.1	-328.44	-176.25	1357.2	-176.06	-171.51	1204.8	-153.01	33.165	1407.4	-220.4	-367.1	1389.4	-255.37	-292.62	1353.8	-338.56	-89.185	917.87	-166.26	-283.6	919.86	-220.28	-108.5	967.84	-344.62	-178.87	973.62	-364.33	-26.412	988.75	-209.56	-313.66	999.16	-280.71	27.482	676.19	-201.99	22.134	720.48	-215.84	34.123	672.68	-235.83	87.823	607.13	-221.93	40.708	469.24	-216.51	NaN	NaN	NaN	-339.36	649.54	-313.84	-343.18	681.25	-291.18	-325.13	684.14	-350.78	-380.98	588.92	-317.75	-324.5	461.01	-292.24	NaN	NaN	NaN	89.877	323.57	-318.06	73.808	345.57	-263.09	78.516	366.68	-310.63	131.53	249.26	-284.1	110.58	96.412	-398.46	26.643	85.971	-369.58	-349.93	320.9	-348.94	-337.53	357.43	-315.21	-340.85	370.51	-365.07	-399.08	253.26	-355.5	-350.14	78.245	-400.24	-270.37	79.058	-362.8	59.936	76.705	-442.37	35.852	57.421	-377.59	111.61	67.6	-398.17	101.32	46.123	-271.15	145.83	36.762	-292.78	-296.76	69.641	-437.18	-278.26	43.109	-369.36	-352.9	52.119	-395.14	-365.52	44.569	-271.04	-409.27	32.311	-312.4
